
<svg version="1.1" id="Layer_1" xmlns="http://www.w3.org/2000/svg" xmlns:xlink="http://www.w3.org/1999/xlink" x="0px" y="0px"
	 viewBox="0 0 512 512" style="enable-background:new 0 0 512 512;" xml:space="preserve">
<g>
	<g>
		<g>
			<path d="M256,0C114.8,0,0,114.8,0,256s114.8,256,256,256s256-114.8,256-256S397.2,0,256,0z M256,490.7
				C126.6,490.7,21.3,385.4,21.3,256S126.6,21.3,256,21.3S490.7,126.6,490.7,256S385.4,490.7,256,490.7z"/>
			<path d="M326.3,224.3l-70.1,68l-69.4-67.5c-2.8-2.8-12.8-0.1-15.6,2.8c-2.8,2.8-2.8,7.4,0,10.3l79.9,79.9
				c1.4,1.4,3.3,2.1,5.1,2.1s3.7-0.7,5.1-2.1l79.9-79.9c2.8-2.8,0.6-9-2.2-11.9C336.1,223,329.1,221.4,326.3,224.3z"/>
		</g>
	</g>
</g>
</svg>
